<svg width="461.223" height="464" xmlns="http://www.w3.org/2000/svg"><defs><radialGradient cx="65.173%" cy="32.865%" fx="65.173%" fy="32.865%" r="50%" gradientTransform="matrix(0 -1 1.41697 0 .186 .98)" id="radialGradient-1"><stop stop-color="#FFF" offset="0%"/><stop stop-color="#C4C4C4" offset="100%"/><stop stop-color="#C4C4C4" offset="100%"/></radialGradient></defs><g id="Page-1" stroke="none" stroke-width="1" fill="none" fill-rule="evenodd"><g id="Ultra-49mm" transform="translate(-18 -18)"><g id="CeutaLogoPerla" transform="translate(18 18)"><path d="M232 .5c57.396 0 109.914 20.888 150.366 55.476 40.904 34.976 69.472 83.96 78.273 139.522l-106.44.001c-7.927-26.574-24.285-49.513-45.972-65.713C286.965 113.904 260.581 104.5 232 104.5c-35.208 0-67.083 14.27-90.156 37.344C118.77 164.917 104.5 196.792 104.5 232c0 35.208 14.27 67.083 37.344 90.156C164.917 345.23 196.792 359.5 232 359.5c28.58 0 54.964-9.404 76.227-25.286 21.686-16.2 38.045-39.138 45.971-65.712h106.44c-8.8 55.563-37.368 104.547-78.272 139.522C341.914 442.612 289.396 463.5 232 463.5c-63.927 0-121.802-25.912-163.695-67.805C26.412 353.802.5 295.927.5 232c0-63.927 25.912-121.802 67.805-163.695C110.198 26.412 168.073.5 232 .5Z" id="Combined-Shape" stroke="#000" fill="#4198B8"/><circle id="Oval" stroke="#979797" fill="url('#radialGradient-1')" cx="232" cy="232" r="71.5"/></g></g></g></svg>