<?xml version="1.0" encoding="UTF-8"?>
<svg width="461.223362px" height="464px" viewBox="0 0 461.223362 464" version="1.1" xmlns="http://www.w3.org/2000/svg" xmlns:xlink="http://www.w3.org/1999/xlink">
    <title>CeutaLogoPerla</title>
    <defs>
        <radialGradient cx="65.1731174%" cy="32.8648928%" fx="65.1731174%" fy="32.8648928%" r="50%" gradientTransform="translate(0.651731,0.328649),rotate(-90.000000),scale(1.000000,1.416969),translate(-0.651731,-0.328649)" id="radialGradient-1">
            <stop stop-color="#FFFFFF" offset="0%"></stop>
            <stop stop-color="#C4C4C4" offset="100%"></stop>
            <stop stop-color="#C4C4C4" offset="100%"></stop>
        </radialGradient>
    </defs>
    <g id="Page-1" stroke="none" stroke-width="1" fill="none" fill-rule="evenodd">
        <g id="Ultra-49mm" transform="translate(-18.000000, -18.000000)">
            <g id="CeutaLogoPerla" transform="translate(18.000000, 18.000000)">
                <path d="M232,0.5 C289.396281,0.5 341.913997,21.3877257 382.3662,55.9764911 C423.27036,90.9517041 451.838252,139.935598 460.638686,195.498065 L354.19846,195.499366 C346.272219,168.924773 329.913935,145.985622 308.227144,129.786318 C286.964711,113.903995 260.580583,104.5 232,104.5 C196.791847,104.5 164.916847,118.770924 141.843885,141.843885 C118.770924,164.916847 104.5,196.791847 104.5,232 C104.5,267.208153 118.770924,299.083153 141.843885,322.156115 C164.916847,345.229076 196.791847,359.5 232,359.5 C260.580395,359.5 286.964363,350.096129 308.226724,334.213996 C329.913452,318.014877 346.271759,295.075973 354.198162,268.501632 L460.638528,268.502935 C451.837881,324.065164 423.269934,373.048814 382.365813,408.023839 C341.913663,442.612407 289.396098,463.5 232,463.5 C168.07304,463.5 110.19804,437.58848 68.3047802,395.69522 C26.4115201,353.80196 0.5,295.92696 0.5,232 C0.5,168.07304 26.4115201,110.19804 68.3047802,68.3047802 C110.19804,26.4115201 168.07304,0.5 232,0.5 Z" id="Combined-Shape" stroke="#000000" fill="#4198B8"></path>
                <circle id="Oval" stroke="#979797" fill="url(#radialGradient-1)" cx="232" cy="232" r="71.5"></circle>
            </g>
        </g>
    </g>
</svg>